<svg xmlns="http://www.w3.org/2000/svg" width="55" height="55" viewBox="0 0 55 55">
  <path id="Icon_ionic-ios-checkmark-circle" data-name="Icon ionic-ios-checkmark-circle" d="M30.875,3.375a27.5,27.5,0,1,0,27.5,27.5A27.5,27.5,0,0,0,30.875,3.375Zm14.081,19.9L27.279,41.029h-.013a2.388,2.388,0,0,1-1.534.727A2.315,2.315,0,0,1,24.185,41l-7.4-7.4a.527.527,0,0,1,0-.754l2.353-2.353a.511.511,0,0,1,.74,0l5.87,5.87,16.13-16.249a.522.522,0,0,1,.37-.159h0a.48.48,0,0,1,.37.159l2.314,2.393A.521.521,0,0,1,44.956,23.273Z" transform="translate(-3.375 -3.375)" fill="#464646"/>
</svg>
