<svg xmlns="http://www.w3.org/2000/svg" width="32.506" height="32.499" viewBox="0 0 32.506 32.499">
  <path id="Instagram" d="M16.251,10.155a8.332,8.332,0,1,0,8.332,8.332A8.319,8.319,0,0,0,16.251,10.155Zm0,13.749a5.417,5.417,0,1,1,5.417-5.417A5.427,5.427,0,0,1,16.251,23.9ZM26.868,9.814a1.943,1.943,0,1,1-1.943-1.943A1.939,1.939,0,0,1,26.868,9.814Zm5.519,1.972a9.618,9.618,0,0,0-2.625-6.809,9.681,9.681,0,0,0-6.809-2.625c-2.683-.152-10.725-.152-13.409,0A9.667,9.667,0,0,0,2.734,4.97,9.649,9.649,0,0,0,.109,11.779c-.152,2.683-.152,10.725,0,13.409A9.618,9.618,0,0,0,2.734,32a9.693,9.693,0,0,0,6.809,2.625c2.683.152,10.725.152,13.409,0A9.618,9.618,0,0,0,29.761,32a9.681,9.681,0,0,0,2.625-6.809c.152-2.683.152-10.718,0-13.4ZM28.92,28.067a5.484,5.484,0,0,1-3.089,3.089c-2.139.848-7.216.653-9.58.653S8.8,32,6.672,31.156a5.484,5.484,0,0,1-3.089-3.089c-.848-2.139-.653-7.216-.653-9.58s-.189-7.448.653-9.58A5.484,5.484,0,0,1,6.672,5.818c2.139-.848,7.216-.653,9.58-.653s7.448-.189,9.58.653A5.484,5.484,0,0,1,28.92,8.908c.848,2.139.653,7.216.653,9.58S29.769,25.935,28.92,28.067Z" transform="translate(0.005 -2.238)" fill="#37ceb0"/>
</svg>
