<svg xmlns="http://www.w3.org/2000/svg" width="32.722" height="32.722" viewBox="0 0 32.722 32.722">
  <path id="Whatsapp" d="M27.821,7A16.22,16.22,0,0,0,2.3,26.572L0,34.972l8.6-2.257a16.166,16.166,0,0,0,7.75,1.972h.007A16.371,16.371,0,0,0,32.722,18.472,16.279,16.279,0,0,0,27.821,7ZM16.354,31.955a13.453,13.453,0,0,1-6.866-1.877L9,29.786,3.9,31.123l1.359-4.974-.321-.511a13.5,13.5,0,1,1,25.045-7.165A13.628,13.628,0,0,1,16.354,31.955Zm7.392-10.094c-.4-.2-2.4-1.183-2.768-1.315s-.643-.2-.913.2-1.044,1.315-1.286,1.592-.475.307-.876.1c-2.381-1.191-3.944-2.125-5.515-4.821-.416-.716.416-.665,1.191-2.213a.751.751,0,0,0-.037-.708c-.1-.2-.913-2.2-1.249-3.009-.329-.789-.665-.679-.913-.694s-.5-.015-.774-.015a1.5,1.5,0,0,0-1.081.5,4.553,4.553,0,0,0-1.417,3.382,7.937,7.937,0,0,0,1.651,4.193c.2.27,2.856,4.36,6.924,6.121,2.571,1.11,3.579,1.205,4.864,1.015a4.15,4.15,0,0,0,2.732-1.928,3.389,3.389,0,0,0,.234-1.928C24.417,22.161,24.147,22.058,23.745,21.861Z" transform="translate(0 -2.25)" fill="#37ceb0"/>
</svg>
